<?xml version="1.0"?>
<svg xmlns="http://www.w3.org/2000/svg" viewBox="0 0 512 512" width="512" height="512"><g id="Fill_out_line" data-name="Fill out line"><path d="M320,272l.00007,0a117.50769,117.50769,0,0,1,88.893,87.79561L414.58823,384,376,432l-56,32H200l-72-40V272H320Z" style="fill:#8ed0eb"/><polygon points="240 248 240 272 280 296 320 272 320 248 240 248" style="fill:#f8d2b3"/><path d="M320,248H220a60,60,0,0,1-60-60V112l40-40H320Z" style="fill:#f8d2b3"/><rect x="304" y="120" width="16" height="152" style="fill:#f6c598"/><path d="M241.57764,228.15527l-7.15528-14.31054,58-29A7.99583,7.99583,0,0,1,296,184h8V152H290.21582l-64.12939,38.47754-8.23145-13.7207,66.0293-39.61719A8.00733,8.00733,0,0,1,288,136h24a8.00008,8.00008,0,0,1,8,8v48a8.00008,8.00008,0,0,1-8,8H297.88867Z" style="fill:#8ed0eb"/><path d="M336,112a87.59715,87.59715,0,0,1-18.29,53.71L296,144a96.5576,96.5576,0,0,0-28.28-68.28L264,72a135.16992,135.16992,0,0,0-95.6,39.6001L160,120v-8a88,88,0,0,1,176,0Z" style="fill:#262d43"/><path d="M248,248l16-40-16-40-56-8-32,8v20a60,60,0,0,0,60,60Z" style="fill:#349d66"/><circle cx="184" cy="136" r="8" style="fill:#262d43"/><circle cx="224" cy="136" r="8" style="fill:#262d43"/><path d="M288,144l2.63344-5.26688A19.41638,19.41638,0,0,1,308,128h0a19.41638,19.41638,0,0,1,17.36655,10.73312h0A24.94431,24.94431,0,0,1,328,149.88854h0a42.83266,42.83266,0,0,1-4.522,19.1554l-7.90031,15.80064A12.94427,12.94427,0,0,1,304,192h0a12.94427,12.94427,0,0,1-11.5777-7.15541L288,176Z" style="fill:#f8d2b3"/><rect x="240" y="248" width="48" height="16" style="fill:#f6c598"/><polygon points="168 448 128 432 112 392 168 392 168 448" style="fill:#37a2c7"/><path d="M335.67993,104.5q.31512,3.705.32007,7.5a88.00341,88.00341,0,0,1-3.96,26.16992,166.80567,166.80567,0,0,1,30.8999,20.26L126.43,394.93994A168.02626,168.02626,0,0,1,160,150.10986V112.51A199.932,199.932,0,0,0,56,288c0,110.46,89.54,200,200,200s200-89.54,200-200A200.04489,200.04489,0,0,0,335.67993,104.5ZM256,456a167.277,167.277,0,0,1-106.94-38.42993l236.51007-236.51A168.0019,168.0019,0,0,1,256,456Z" style="fill:#e84042"/><path d="M216,208l-40,80-24,8-24,48v48H94.81a40.2871,40.2871,0,0,1-34.8-60.59009L104,256l-8-32,8-16h33.14L160,176Z" style="fill:#f8d2b3"/><polygon points="137.14 208 120 232 106.98 222.7 117.48 208 137.14 208" style="fill:#f6c598"/><path d="M343.1272,99.07715a95.99767,95.99767,0,0,0-191.02936,8.707A208.18952,208.18952,0,0,0,52.10571,329.22559a48.19012,48.19012,0,0,0,26.92237,68.08032A207.801,207.801,0,0,0,256,496c114.69141,0,208-93.30859,208-208A208.027,208.027,0,0,0,343.1272,99.07715Zm-123.158,101.97656-48.45209-27.687,20.90277-5.2251,49.87012,7.124L255.38379,208,242.584,240H220a52.2352,52.2352,0,0,1-10.51849-1.07422l13.67376-27.34766A8.00053,8.00053,0,0,0,219.96924,201.05371ZM133.0257,200H122.36829A161.96049,161.96049,0,0,1,152,166.448v6.988Zm183.297-34.53418-7.90039,15.80078a4.94416,4.94416,0,0,1-8.84472,0l-4.42237-8.84472-14.31054,7.15624,4.42212,8.84424-17.06812,8.53418-10.2406-25.60132,34.15808-20.49487a8.00587,8.00587,0,0,0,3.03906-3.28223l2.6333-5.2666a11.41631,11.41631,0,0,1,20.42286,0A17.02935,17.02935,0,0,1,320,149.88867,35.00948,35.00948,0,0,1,316.32275,165.46582ZM283.478,135.15527l-1.5918,3.1836-35.56689,21.33935-53.188-7.59814a8.01942,8.01942,0,0,0-3.07178.15918L168,157.75415V123.31348l6.05859-6.0586A126.31047,126.31047,0,0,1,260.72705,80.041l1.332,1.332a88.97,88.97,0,0,1,24.81665,48.56738A27.69708,27.69708,0,0,0,283.478,135.15527Zm-81.34033,118.458A67.91,67.91,0,0,0,220,256h12v8H196.94434ZM188.94434,280h41.11157L133.3371,376.719l2.50958-30.52368L157.67334,302.542l20.85645-6.95215a8.00049,8.00049,0,0,0,4.62548-4.01172ZM248,262.05591V256a7.99922,7.99922,0,0,0,7.42773-5.0293L270.298,213.79517l28.772-14.386a20.9945,20.9945,0,0,0,12.32556-.749Zm80-84.16724,2.6333-5.2666a51.09234,51.09234,0,0,0,5.35034-22.17969c.121-.27612.24585-.551.364-.82788a160.57716,160.57716,0,0,1,14.542,9.55152L328,182.05566ZM248,32a80.10594,80.10594,0,0,1,78.56042,95.22461A27.26815,27.26815,0,0,0,308,120a27.674,27.674,0,0,0-6.632.81763,105.05056,105.05056,0,0,0-27.99548-50.759l-3.71582-3.71582A8.00035,8.00035,0,0,0,264,64a142.14285,142.14285,0,0,0-95.11835,36.16113A80.1201,80.1201,0,0,1,248,32Zm-96,94.59082v19.43237a177.7186,177.7186,0,0,0-48.45892,54.009,7.98677,7.98677,0,0,0-6.69635,4.38965l-8,16a8.00338,8.00338,0,0,0-.606,5.51855l1.243,4.97168a174.92752,174.92752,0,0,0-9.332,50.09668l-15.19946,26.0564C64.32758,300.74414,64,294.37769,64,288A192.07706,192.07706,0,0,1,152,126.59082ZM67.12354,368.32324a32.28548,32.28548,0,0,1-.20313-32.88183l43.98975-75.41016a8.00159,8.00159,0,0,0,.85107-5.97168L104.479,224.93066,108.94434,216h12.65277l-8.10688,11.34961,13.01954,9.30078,35.79785-50.11719L205.46,211.19141l-35.1333,70.2666-20.85645,6.95215a8.00049,8.00049,0,0,0-4.62548,4.01172l-24,48a7.99855,7.99855,0,0,0-.81787,2.92285L116.68439,384H94.811A32.45156,32.45156,0,0,1,67.12354,368.32324ZM256,480a191.70715,191.70715,0,0,1-155.94232-80H120.2334l.02392.0293a8.00165,8.00165,0,0,0,5.78956,2.90234c.12841.00586.25585.00879.38378.00879a8.001,8.001,0,0,0,5.65674-2.34375L368.59668,164.08691a8.00081,8.00081,0,0,0-.562-11.82519,176.74177,176.74177,0,0,0-26.59339-18.14722,95.4644,95.4644,0,0,0,2.41993-16.87744A192.02727,192.02727,0,0,1,448,288C448,393.86914,361.86914,480,256,480Z"/><path d="M391.73682,175.96387a8.00013,8.00013,0,0,0-11.82325-.56055L143.40332,411.91309a7.9995,7.9995,0,0,0,.56006,11.82324A176.2287,176.2287,0,0,0,256,464c97.04688,0,176-78.95312,176-176A176.22847,176.22847,0,0,0,391.73682,175.96387ZM384.833,193.11133a160.09923,160.09923,0,0,1,24.08215,142.01123A125.371,125.371,0,0,0,328,265.77173V249.94434ZM256,448a160.27825,160.27825,0,0,1-94.88867-31.167L275.38391,302.56055l.49988.2998a8.00333,8.00333,0,0,0,8.23242,0l37.19617-22.31763a109.42481,109.42481,0,0,1,78.74731,77.04078A160.19736,160.19736,0,0,1,256,448Z"/><circle cx="184" cy="136" r="8"/><circle cx="224" cy="136" r="8"/></g></svg>
